<svg width="24" height="24" viewBox="0 -2 24 24" stroke-width="2" stroke="currentColor" fill="none" stroke-linecap="round" stroke-linejoin="round">
	<path id="path" d="M10.268 18.6866C5.31799 18.6856 1 16.2546 1 12.5996C1 10.6526 2.17999 8.5126 4.23999 6.51163C7.07199 3.76562 10.469 2.47861 12.098 4.06363C12.596 4.54562 12.504 5.77563 12.5 6.51163C14.475 5.93561 16.467 5.51761 17.3 6.67361C17.749 7.29663 17.206 8.46564 17 9.29263C18.511 9.90262 20.194 10.6506 20.194 12.2626C20.194 15.6246 15.664 18.6866 10.268 18.6866ZM15.5 3.56439C18 3.06436 20.5 4.06436 20.194 7.56442M15.5 1.06433C19.5 0.56427 23 3.06427 22.5 7.56427" stroke-linejoin="round"/>
</svg>
