<svg width="24" height="24" viewBox="0 -2 24 26" stroke-width="1" stroke="currentColor" fill="none" stroke-linecap="round" stroke-linejoin="round">
	<path id="path" d="M19.8492 12.7425C19.7569 12.5722 19.703 12.3665 19.6876 12.1252C19.6569 11.8415 19.6299 11.6854 19.6069 11.657C19.5838 11.6287 19.5491 11.7209 19.503 11.9337C19.4261 12.2601 19.3068 12.5438 19.1453 12.785C18.9837 13.0262 18.7952 13.1894 18.5798 13.2745C18.4413 13.3313 18.2643 13.3597 18.049 13.3597C17.8951 13.3597 17.7874 13.3491 17.7258 13.3278C17.6642 13.3065 17.5797 13.2533 17.4719 13.1682C17.3027 13.0405 17.2026 12.9766 17.1719 12.9766C17.1411 12.9766 17.0872 12.8986 17.0103 12.7425C16.9333 12.5864 16.8949 12.4587 16.8949 12.3594C16.8949 12.2175 16.8564 12.0969 16.7795 11.9976C16.7026 11.8983 16.6641 11.7812 16.6641 11.6464C16.6641 11.5116 16.6987 11.4052 16.7679 11.3271C16.8372 11.2491 16.8795 11.1462 16.8949 11.0186C16.9103 10.9334 16.9295 10.8802 16.9526 10.8589C16.9757 10.8376 17.0257 10.8199 17.1027 10.8057C17.1796 10.7915 17.2296 10.7667 17.2526 10.7312C17.2758 10.6957 17.3027 10.5858 17.3334 10.4014C17.3796 10.1602 17.4565 9.99695 17.5643 9.9118C17.6104 9.8551 17.6412 9.80542 17.6566 9.76282C17.6719 9.72028 17.6719 9.65643 17.6566 9.57129C17.6412 9.48615 17.6219 9.43298 17.5989 9.41168C17.5758 9.39038 17.5142 9.37976 17.4142 9.37976C17.3142 9.37976 17.2372 9.34076 17.1834 9.2627C17.1296 9.18463 17.118 9.10309 17.1488 9.01794C17.1796 8.9328 17.2526 8.8725 17.368 8.83704C17.4835 8.80157 17.5642 8.71997 17.6104 8.59229C17.6566 8.49298 17.6758 8.42914 17.6681 8.40076C17.6604 8.37238 17.6181 8.33685 17.5411 8.29431C17.218 8.06732 17.018 7.81897 16.941 7.54944C16.8641 7.22308 16.9141 6.92865 17.0911 6.66614C17.2681 6.40369 17.5488 6.23694 17.9335 6.16602C18.1028 6.13763 18.2028 6.11279 18.2336 6.09149C18.2643 6.07025 18.2797 6.02411 18.2797 5.95319C18.2797 5.88226 18.2682 5.83258 18.2451 5.8042C18.222 5.77582 18.172 5.75452 18.0951 5.74036C17.9566 5.71198 17.8835 5.62683 17.8759 5.48492C17.8682 5.34308 17.9258 5.25085 18.049 5.20825C18.1259 5.19409 18.249 5.12671 18.4182 5.0061C18.5875 4.8855 18.7413 4.81097 18.8798 4.78259C18.9568 4.76843 19.0068 4.75067 19.0298 4.72937C19.0529 4.70813 19.0568 4.66199 19.0414 4.59106C19.0106 4.49176 19.0452 4.36047 19.1453 4.19733C19.2452 4.03418 19.2838 3.92773 19.2607 3.87805C19.2375 3.82843 19.153 3.83551 19.0068 3.89935C18.8606 3.9632 18.7875 4.01642 18.7875 4.05896C18.7875 4.10156 18.726 4.17957 18.6028 4.29309C18.5259 4.36401 18.4644 4.40662 18.4182 4.42078C18.3721 4.435 18.272 4.435 18.1182 4.42078C17.9335 4.40662 17.8143 4.41724 17.7604 4.4527C17.7065 4.48822 17.7027 4.56976 17.7489 4.69745C17.7797 4.76843 17.7835 4.85712 17.7604 4.9635C17.7374 5.06995 17.6989 5.12311 17.645 5.12311C17.5912 5.12311 17.5488 5.16925 17.5181 5.26147C17.4873 5.3537 17.4873 5.4353 17.5181 5.50623C17.595 5.64813 17.5104 5.71906 17.2642 5.71906C17.1411 5.71906 17.0526 5.7439 16.9988 5.79358C16.9449 5.8432 16.9026 5.8645 16.8718 5.85742C16.8411 5.85028 16.7718 5.79712 16.6641 5.69775C16.5564 5.59845 16.4756 5.54169 16.4218 5.52753C16.3679 5.51331 16.2333 5.50623 16.0178 5.50623C15.7255 5.52045 15.5562 5.50623 15.5101 5.46368C15.4639 5.42108 15.3947 5.39984 15.3024 5.39984C15.2408 5.39984 15.2062 5.40692 15.1985 5.42108C15.1908 5.4353 15.1946 5.46722 15.21 5.51685C15.2254 5.56653 15.1946 5.65521 15.1177 5.7829C15.0408 5.91058 14.9639 5.99219 14.8869 6.02765C14.81 6.06311 14.7061 6.08087 14.5753 6.08087C14.4445 6.08087 14.3214 6.03479 14.2061 5.94257C14.0906 5.85028 14.033 5.75098 14.033 5.64459C14.033 5.53815 13.9868 5.4353 13.8945 5.33594C13.8483 5.27924 13.8214 5.23309 13.8137 5.19763C13.806 5.16217 13.8214 5.11603 13.8598 5.05927C13.8983 5.00256 13.906 4.93866 13.8829 4.86774C13.8598 4.79681 13.806 4.74005 13.7213 4.69745C13.6367 4.65491 13.5713 4.64783 13.5251 4.67621C13.479 4.70459 13.4713 4.75067 13.5021 4.81451C13.5328 4.87836 13.5482 4.92804 13.5482 4.9635C13.5482 4.99896 13.5251 5.0451 13.479 5.10187C13.4174 5.18701 13.3559 5.22955 13.2944 5.22955C13.2328 5.22955 13.1405 5.26501 13.0174 5.33594C12.8174 5.47784 12.6173 5.47784 12.4173 5.33594C12.3096 5.26501 12.1403 5.23663 11.9095 5.25085C11.7557 5.25085 11.6556 5.24371 11.6095 5.22955C11.5633 5.21539 11.4979 5.15863 11.4133 5.05927C11.3287 4.95996 11.2787 4.87836 11.2632 4.81451C11.2479 4.75067 11.2402 4.60883 11.2402 4.38885C11.2402 4.16895 11.2479 4.01642 11.2632 3.93127C11.2787 3.84613 11.3171 3.75391 11.3787 3.6546C11.5479 3.38501 11.798 3.21118 12.1288 3.13318C12.4596 3.05511 12.7866 3.09418 13.1097 3.25024C13.1866 3.27863 13.2443 3.29279 13.2828 3.29279C13.3213 3.29279 13.402 3.26794 13.5251 3.21832C13.6483 3.16864 13.7983 3.14026 13.9752 3.13318C14.1522 3.1261 14.2868 3.13672 14.3792 3.1651C14.4714 3.19348 14.5638 3.17218 14.6561 3.10126C14.7023 3.05865 14.7561 3.03027 14.8177 3.01611C14.8792 3.00195 14.9792 2.99481 15.1177 2.99481C15.3485 3.00903 15.5255 2.97711 15.6486 2.89905C15.7717 2.82104 15.8794 2.6756 15.9717 2.46277C16.064 2.24994 16.2179 2.03711 16.4333 1.82428C16.6949 1.58307 16.8795 1.33118 16.9872 1.06873C17.0949 0.806213 17.118 0.554382 17.0565 0.313171C16.9949 0.128723 16.9565 0.0258179 16.941 0.00457764C16.9257 -0.0167236 16.8795 0.036499 16.8026 0.164185C16.7256 0.29187 16.6064 0.433777 16.4448 0.589844C16.2833 0.745911 16.1409 0.852356 16.0178 0.909119C15.7101 1.0368 15.4409 1.05804 15.21 0.972961C15.0715 0.916199 14.933 0.909119 14.7946 0.95166C14.6561 0.994202 14.4907 1.09357 14.2983 1.24963C14.106 1.4057 13.9445 1.50146 13.8137 1.53693C13.6829 1.57239 13.5136 1.57953 13.3059 1.55823C13.0981 1.53693 12.9404 1.49084 12.8328 1.41986C12.725 1.34894 12.6481 1.31348 12.6019 1.31348C12.5558 1.31348 12.4634 1.38086 12.325 1.51569C12.1865 1.65045 12.0942 1.76752 12.048 1.86682C11.9095 2.17896 11.7018 2.40955 11.4248 2.55853C11.1479 2.70752 10.8363 2.79974 10.4901 2.83521C10.1439 2.87067 9.84766 2.83875 9.6015 2.73944C9.41681 2.66852 9.27063 2.64368 9.16296 2.66492C9.05524 2.68622 8.93982 2.75714 8.81671 2.87775C8.69366 2.99835 8.63208 3.10126 8.63208 3.1864C8.63208 3.27148 8.58594 3.41693 8.49359 3.62268C8.40131 3.82843 8.30896 3.9845 8.21667 4.09088C8.12433 4.19733 8.04736 4.31439 7.98584 4.44208C7.92432 4.56976 7.84351 4.66199 7.74347 4.71875C7.64349 4.77551 7.48578 4.81805 7.27032 4.84644C6.74719 4.88904 6.37024 4.76135 6.1394 4.46338C6.0163 4.29309 5.97784 4.20087 6.02399 4.18671C6.07019 4.17249 6.12402 4.11572 6.18555 4.01642C6.24713 3.91711 6.34326 3.83905 6.47406 3.78229C6.60486 3.72552 6.67023 3.6546 6.67023 3.56946C6.67023 3.44177 6.651 3.36371 6.61255 3.33539C6.5741 3.30701 6.4856 3.29987 6.34711 3.31409C6.20862 3.32825 6.11633 3.32825 6.07019 3.31409C6.02399 3.29987 5.95862 3.25732 5.87396 3.1864C5.78937 3.11542 5.73547 3.05865 5.7124 3.01611C5.68933 2.97357 5.6778 2.89551 5.6778 2.78198C5.6778 2.62592 5.63934 2.51239 5.56238 2.44147L5.42389 2.31378L5.35468 2.42017C5.30853 2.49115 5.23157 2.55499 5.12384 2.61176C5.01617 2.66852 4.9469 2.75714 4.91614 2.87775C4.88538 2.99835 4.77765 3.16864 4.59302 3.38855C4.40839 3.60852 4.31604 3.75037 4.31604 3.81421C4.31604 3.87805 4.25452 3.95966 4.13141 4.05896C3.94678 4.20087 3.71594 4.21509 3.43896 4.10156C3.31592 4.05896 3.30054 4.19379 3.39282 4.50592C3.43896 4.64783 3.51978 4.73651 3.63519 4.77197C3.75055 4.80743 3.84674 4.9032 3.92371 5.05927C4.00061 5.21539 4.04291 5.32532 4.0506 5.38916C4.05829 5.453 4.04675 5.53107 4.01599 5.62329C3.98523 5.71552 3.98523 5.78998 4.01599 5.84674C4.04675 5.9035 4.11218 5.95673 4.21216 6.00641C4.31219 6.05603 4.36218 6.10217 4.36218 6.14471C4.36218 6.18732 4.30835 6.25824 4.20062 6.35754C4.09296 6.45685 3.966 6.51007 3.81982 6.51715C3.67365 6.52429 3.54669 6.48883 3.43896 6.41077C3.3313 6.3327 3.26971 6.2937 3.25433 6.2937C3.23895 6.2937 3.20819 6.36823 3.16205 6.51715C3.11584 6.66614 3.04663 6.77612 2.95428 6.84705C2.66193 7.08826 2.43884 7.23724 2.28497 7.29401C2.17725 7.33655 2.02338 7.34015 1.82336 7.30463C1.62335 7.26917 1.45404 7.20532 1.31561 7.1131C1.17712 7.02087 1.08862 6.97479 1.05017 6.97479C1.01172 6.97479 0.930908 6.93219 0.8078 6.84705C0.561646 6.64844 0.507751 6.71936 0.64624 7.05988C0.707825 7.25854 0.723206 7.41461 0.692444 7.52814C0.661621 7.64166 0.64624 7.74805 0.64624 7.84735C0.64624 7.94672 0.661621 8.00342 0.692444 8.01764C0.723206 8.0318 0.811646 8.02472 0.957825 7.99634C1.104 7.96796 1.24249 7.9715 1.37329 8.00702C1.50409 8.04248 1.60791 8.11694 1.68488 8.23047C1.7926 8.38654 1.80414 8.55328 1.71948 8.73059C1.63489 8.90796 1.46948 9.05341 1.22327 9.16693C1.08478 9.23785 0.996277 9.30524 0.957825 9.36914C0.919373 9.43298 0.915527 9.52875 0.946289 9.65643C0.96167 9.74158 0.984741 9.7948 1.01556 9.81604C1.04633 9.83734 1.10016 9.8551 1.17712 9.86926C1.36176 9.9118 1.50409 10.0182 1.60406 10.1885C1.7041 10.3588 1.70795 10.5078 1.61566 10.6354C1.58484 10.6922 1.60022 10.7631 1.6618 10.8483C1.73871 10.976 1.7926 11.1427 1.82336 11.3484C1.85413 11.5542 1.85413 11.7847 1.82336 12.0402C1.7926 12.2955 1.73486 12.5013 1.65027 12.6573C1.56561 12.8134 1.43866 12.9482 1.26941 13.0617L0.8078 13.381C0.700134 13.4519 0.580872 13.4945 0.450073 13.5087C0.319275 13.5228 0.207703 13.5016 0.115417 13.4448C0.0692139 13.4306 0.0384521 13.4235 0.0230713 13.4235C0.00769043 13.4235 0 13.4448 0 13.4874C0 13.6434 0.0769653 13.8421 0.230835 14.0833C0.384705 14.3245 0.584717 14.5587 0.830872 14.7856C0.96936 14.9276 1.0694 15.0162 1.13092 15.0517C1.1925 15.0872 1.2771 15.1049 1.38483 15.1049C1.49255 15.1049 1.63873 15.151 1.82336 15.2432C2.008 15.3354 2.13879 15.4384 2.2157 15.5518C2.38501 15.7789 2.4696 16.1478 2.4696 16.6586C2.48499 16.9423 2.4696 17.1303 2.42346 17.2225C2.37732 17.3148 2.24652 17.4034 2.03107 17.4886C1.86182 17.5453 1.77722 17.595 1.77722 17.6376C1.77722 17.6802 1.95416 17.7369 2.30804 17.8079C2.66193 17.8788 2.87738 17.9036 2.95428 17.8823C3.03125 17.8611 3.22357 17.8752 3.53131 17.9249C3.83905 17.9745 4.14294 18.0632 4.44299 18.1909C4.74304 18.3187 5.00079 18.4747 5.21619 18.6592C5.38544 18.801 5.51239 18.9394 5.59698 19.0742C5.68164 19.209 5.73932 19.3615 5.77014 19.5318C5.78552 19.6453 5.80859 19.7198 5.83936 19.7552C5.87012 19.7907 5.95477 19.8226 6.09326 19.851C6.15479 19.8652 6.21252 19.8688 6.26636 19.8616C6.32019 19.8546 6.38562 19.8226 6.46252 19.7659C6.60101 19.6807 6.80103 19.5956 7.06262 19.5105C7.32422 19.4254 7.53577 19.3899 7.69733 19.4041C7.85889 19.4183 8.03583 19.4821 8.22821 19.5956C8.42053 19.7091 8.61285 19.7872 8.80518 19.8297C8.99756 19.8723 9.16296 19.8723 9.30145 19.8297C9.37836 19.8156 9.43994 19.7872 9.48608 19.7446C9.53223 19.702 9.57837 19.6311 9.62457 19.5318C9.79382 19.2338 10.0131 19.0352 10.2823 18.9359C10.5516 18.8365 10.8478 18.8365 11.171 18.9359C11.371 19.0068 11.5479 19.0919 11.7018 19.1912C11.8557 19.2906 11.9672 19.4005 12.0364 19.5211C12.1057 19.6417 12.2404 19.7482 12.4404 19.8404C12.6404 19.9326 12.8558 19.9787 13.0866 19.9787L13.4097 20L13.4329 19.6807C13.4482 19.4679 13.4905 19.3118 13.5598 19.2125C13.629 19.1132 13.7752 18.95 13.9983 18.723C14.2214 18.496 14.4176 18.3187 14.5869 18.1909C14.8023 18.0349 14.9831 17.9285 15.1293 17.8717C15.2755 17.8149 15.4409 17.7866 15.6255 17.7866C15.8101 17.7866 15.9332 17.7795 15.9948 17.7653C16.1179 17.7227 16.1102 17.5028 15.9717 17.1055C15.8948 16.921 15.864 16.7543 15.8794 16.6053C15.8948 16.4564 15.9486 16.3038 16.041 16.1478C16.1332 15.9917 16.2756 15.8533 16.4679 15.7327C16.6603 15.6121 16.8449 15.5447 17.0219 15.5306C17.1988 15.5164 17.3334 15.4738 17.4258 15.4028C17.5181 15.3319 17.5873 15.2184 17.6335 15.0623C17.7412 14.736 17.972 14.4877 18.3259 14.3174C18.5259 14.2323 18.7067 14.1152 18.8683 13.9662C19.0298 13.8173 19.1876 13.7109 19.3414 13.647C19.4953 13.5831 19.6415 13.4945 19.78 13.381C19.9185 13.2675 19.9915 13.1752 19.9992 13.1043C20.0069 13.0333 19.9569 12.9127 19.8492 12.7425ZM9.30145 17.3184C8.27051 17.3184 7.31653 17.0807 6.43945 16.6053C5.56238 16.13 4.87 15.4915 4.36218 14.6899C3.85443 13.8882 3.60052 13.0085 3.60052 12.0508C3.60052 11.093 3.85828 10.2133 4.37378 9.41168C4.88922 8.60999 5.5816 7.9715 6.45099 7.49622C7.32037 7.02087 8.27435 6.7832 9.31299 6.7832C10.3516 6.7832 11.3056 7.02087 12.1749 7.49622C13.0443 7.9715 13.7368 8.60999 14.2522 9.41168C14.7676 10.2133 15.0254 11.093 15.0254 12.0508C15.0254 13.0085 14.7676 13.8882 14.2522 14.6899C13.7368 15.4915 13.0405 16.13 12.1634 16.6053C11.2864 17.0807 10.3323 17.3184 9.30145 17.3184Z"></path>
<text font-weight="normal" xml:space="preserve" text-anchor="start" font-family="'Noto Sans Display'" font-size="12" stroke-width="0.8" id="svg_2" y="21" x="7" fill="#ffffff">CN</text>
</svg>